<?xml version="1.0" standalone="no"?>
<!DOCTYPE svg PUBLIC "-//W3C//DTD SVG 20010904//EN"
 "http://www.w3.org/TR/2001/REC-SVG-20010904/DTD/svg10.dtd">
<svg version="1.0" xmlns="http://www.w3.org/2000/svg"
 width="512.000000pt" height="512.000000pt" viewBox="0 0 512.000000 512.000000"
 preserveAspectRatio="xMidYMid meet">
<metadata>
Created by potrace 1.11, written by Peter Selinger 2001-2013
</metadata>
<g transform="translate(0.000000,512.000000) scale(0.100000,-0.100000)"
fill="#000000" stroke="none">
<path d="M191 5098 c-65 -25 -131 -87 -163 -155 l-23 -48 0 -2335 0 -2335 30
-59 c35 -69 95 -122 168 -147 49 -17 171 -18 2353 -19 2561 0 2357 -6 2452 70
34 26 59 58 78 97 l29 58 0 2335 0 2335 -22 47 c-29 64 -101 132 -165 157 -53
20 -68 20 -2368 20 l-2315 0 -54 -21z"/>
</g>
</svg>
